<svg width="62" height="867" viewBox="0 0 62 867" fill="none" xmlns="http://www.w3.org/2000/svg">
<circle cx="31" cy="31" r="31" fill="#34297B"/>
<circle cx="31" cy="836" r="31" fill="#34297B"/>
<path d="M31 42L31 805" stroke="#34297B" stroke-width="3" stroke-dasharray="12 12"/>
<path d="M26.9927 850.835C27.2766 851.101 27.6174 851.248 27.9582 851.248C28.3273 851.248 28.6965 851.101 28.9804 850.806L48.6024 830.035C48.858 829.77 49 829.386 49 828.973C49 828.59 48.8296 828.206 48.5741 827.941L42.1564 821.42C41.5885 820.86 40.7082 820.86 40.1687 821.42L26.9927 835.11L21.143 829.032C20.859 828.737 20.5183 828.59 20.1207 828.59C19.7232 828.59 19.3824 828.767 19.0984 829.062L13.3907 835.346C12.8512 835.936 12.8796 836.851 13.4191 837.411C16.7983 840.892 26.8791 850.746 26.9927 850.835ZM20.1775 832.189L25.9988 838.237C26.2544 838.503 26.6235 838.68 26.9927 838.68C27.3618 838.68 27.731 838.532 27.9866 838.237L41.1626 824.548L45.564 829.003L27.9014 847.678C25.5161 845.347 19.5528 839.506 16.4008 836.29L20.1775 832.189Z" fill="white"/>
</svg>
