<svg width="169" height="197" viewBox="0 0 169 197" fill="none" xmlns="http://www.w3.org/2000/svg">
<path d="M49.6327 84.6006C48.5605 84.6006 47.718 85.4507 47.718 86.5326V91.5945C47.718 92.6764 48.5605 93.5265 49.6327 93.5265C50.705 93.5265 51.5475 92.6764 51.5475 91.5945V86.5326C51.5475 85.4507 50.705 84.6006 49.6327 84.6006Z" fill="white"/>
<path d="M159.04 101.023C157.968 101.023 157.125 101.873 157.125 102.955V107.785C157.125 108.867 157.968 109.717 159.04 109.717C160.112 109.717 160.955 108.867 160.955 107.785V102.955C160.955 101.912 160.074 101.023 159.04 101.023Z" fill="white"/>
<path d="M160.955 72.7767C162.142 72.7381 162.946 72.6994 163.253 72.6222C166.201 72.0812 168.767 68.4876 168.844 64.7395C168.92 61.996 167.618 59.3685 166.661 57.8615C167.657 56.5477 168.92 54.2293 168.997 50.9835C169.074 48.0855 167.695 45.4966 166.623 43.951C167.618 42.7145 168.767 40.5892 168.959 37.4594C169.112 34.3681 167.695 31.7406 166.623 30.195C167.618 28.9198 168.805 26.8719 168.882 24.0125C169.074 18.4096 164.67 15.898 164.478 15.8207C164.21 15.6661 163.904 15.5889 163.597 15.5889C163.253 15.5889 130.205 15.1638 125.188 15.1638C121.282 15.1638 110.483 18.371 104.509 20.5735C99.8753 22.3123 95.2799 22.235 95.2033 22.235H95.165H65.4102C63.6103 19.6848 61.1595 17.4822 58.2874 16.6322C58.2491 11.2998 58.1725 6.97204 58.0193 6.12195C57.4832 3.14664 53.9218 0.557728 50.2072 0.480448C47.4883 0.403167 44.8843 1.71694 43.3908 2.68295C42.0888 1.6783 39.7911 0.403167 36.5744 0.325886C33.7023 0.248605 31.1365 1.63966 29.6047 2.72159C28.341 1.60102 26.2348 0.441807 23.133 0.248605C20.0694 0.0940431 17.4654 1.52374 15.9336 2.60567C14.6699 1.60102 12.602 0.441807 9.80646 0.325886C4.25375 0.132684 1.7646 4.57633 1.68802 4.76954C1.53484 5.04002 1.45825 5.34914 1.45825 5.65827C1.45825 6.00603 1.03701 39.3527 1.03701 44.4146C1.03701 48.356 4.21546 59.2526 6.39825 65.2805C8.1215 69.956 8.04491 74.5928 8.04491 74.6701V74.7087V124.4C6.85778 124.439 6.0536 124.478 5.74724 124.555C2.79856 125.096 0.232823 128.689 0.156234 132.438C0.0796444 135.181 1.38166 137.809 2.33902 139.316C1.34337 140.629 0.0796453 142.948 0.00305615 146.194C-0.073533 149.092 1.30507 151.681 2.37732 153.226C1.38166 154.463 0.232823 156.588 0.0413501 159.718C-0.111828 162.809 1.30507 165.437 2.37732 166.982C1.38166 168.257 0.194529 170.305 0.11794 173.165C-0.0735333 178.767 4.33034 181.279 4.52181 181.356C4.78988 181.511 5.09623 181.588 5.40259 181.588C5.74724 181.588 38.7954 182.013 43.812 182.013C47.7181 182.013 58.5171 178.806 64.4911 176.604C69.1247 174.865 73.7201 174.942 73.7967 174.942H73.835H103.59C105.39 177.492 107.841 179.695 110.713 180.545C110.751 185.877 110.828 190.205 110.981 191.055C111.517 194.03 115.078 196.619 118.793 196.697C121.512 196.774 124.116 195.46 125.609 194.494C126.911 195.499 129.209 196.774 132.426 196.851C132.502 196.851 132.579 196.851 132.655 196.851C135.413 196.851 137.902 195.499 139.395 194.456C140.621 195.46 142.727 196.619 145.829 196.813C148.892 196.967 151.496 195.537 153.028 194.456C154.292 195.46 156.321 196.658 159.155 196.735C164.708 196.928 167.197 192.485 167.274 192.292C167.427 192.021 167.503 191.712 167.503 191.403C167.503 191.055 167.925 157.708 167.925 152.647C167.925 148.705 164.746 137.809 162.563 131.781C160.84 127.105 160.917 122.468 160.917 122.43V122.391V114.277C160.917 113.195 160.074 112.345 159.002 112.345C157.93 112.345 157.087 113.195 157.087 114.277V122.391C157.087 122.855 157.049 127.878 158.964 133.172C161.3 139.547 164.095 149.71 164.095 152.724C164.095 157.399 163.751 186.457 163.674 190.862C163.176 191.557 161.759 193.026 159.27 192.949C156.321 192.833 154.713 190.862 154.636 190.785C154.292 190.36 153.794 190.089 153.258 190.05C152.722 190.012 152.186 190.205 151.803 190.591C151.764 190.63 149.084 193.18 146.02 193.026C142.535 192.833 141.157 190.978 141.118 190.901C140.812 190.437 140.314 190.128 139.74 190.05C139.165 189.973 138.629 190.166 138.208 190.553C138.17 190.591 135.374 193.142 132.464 193.064C128.979 192.949 127.256 190.939 127.179 190.901C126.528 190.05 125.303 189.935 124.499 190.591C123.694 191.248 121.167 192.91 118.908 192.91C118.869 192.91 118.831 192.91 118.793 192.91C116.648 192.871 114.81 191.403 114.657 190.476C114.427 188.853 114.389 169.996 114.427 158.481C114.427 157.399 113.585 156.549 112.512 156.549C111.44 156.549 110.598 157.399 110.598 158.481C110.598 161.07 110.559 168.991 110.598 176.41C108.185 175.097 105.198 171.967 103.82 167.098C99.1094 150.715 108.415 142.832 114.619 137.615C116.036 136.418 117.261 135.374 118.103 134.408C121.512 130.351 121.282 124.207 121.244 123.396V82.9392C124.077 84.137 127.332 84.9098 131.124 84.9098C133.957 84.9098 137.098 84.4848 140.506 83.4801C144.795 82.2436 151.267 78.4569 152.837 72.8926C154.368 72.8926 155.824 72.854 157.126 72.854V96.5406C157.126 97.6225 157.968 98.4726 159.04 98.4726C160.113 98.4726 160.955 97.6225 160.955 96.5406V72.7767ZM100.182 168.18C100.45 169.107 100.833 170.112 101.292 171.155H73.7967C73.3371 171.155 68.3588 171.117 63.1125 173.049C56.7939 175.406 46.7224 178.227 43.7354 178.227C39.1018 178.227 10.3426 177.879 5.93871 177.801C5.24941 177.26 3.75592 175.831 3.87081 173.358C3.98569 170.382 5.93871 168.76 6.0153 168.682C6.43654 168.335 6.7046 167.832 6.7429 167.291C6.78119 166.75 6.58972 166.209 6.20677 165.823C6.16848 165.784 3.64104 163.079 3.79422 159.988C3.98569 156.472 5.82383 155.081 5.90042 155.042C6.35995 154.733 6.66631 154.231 6.7429 153.651C6.81949 153.072 6.62801 152.531 6.24507 152.106C6.20677 152.067 3.67933 149.246 3.75592 146.309C3.87081 142.793 5.86212 141.054 5.90042 140.977C6.7429 140.32 6.85778 139.084 6.20677 138.272C5.55577 137.461 3.87081 134.833 3.9474 132.515C3.98569 130.351 5.44088 128.496 6.35995 128.342C7.96832 128.11 26.6561 128.071 38.0678 128.148C39.1401 128.148 39.9826 127.298 39.9826 126.216C39.9826 125.135 39.1401 124.284 38.0678 124.284C35.5021 124.284 27.6517 124.246 20.2992 124.284C21.6012 121.85 24.703 118.836 29.5282 117.445C45.7651 112.692 53.5771 122.082 58.7469 128.342C59.934 129.771 60.968 131.008 61.9254 131.858C65.257 134.717 70.0438 135.026 71.9968 135.026C72.3798 135.026 72.6861 135.026 72.801 134.988H111.785C105.658 140.166 94.8587 149.71 100.182 168.18ZM117.414 123.589C117.414 123.628 117.682 127.994 115.768 131.085H72.801C72.7627 131.085 72.7244 131.085 72.6478 131.085C72.6095 131.085 67.4398 131.433 64.4145 128.844C63.6869 128.226 62.7678 127.105 61.6956 125.791C59.3596 122.971 56.1046 119.068 51.5092 116.17C51.5475 116.054 51.5475 115.899 51.5475 115.745V97.8544C51.5475 96.7724 50.7051 95.9224 49.6328 95.9224C48.5606 95.9224 47.7181 96.7724 47.7181 97.8544V114.161C42.7398 112.074 36.4212 111.301 28.4559 113.658C24.1669 114.895 17.6951 118.682 16.1251 124.246C14.5933 124.246 13.1381 124.284 11.8361 124.284V74.7087C11.8361 74.2837 11.8744 69.2218 9.95964 63.9281C7.62367 57.5524 4.82817 47.3899 4.82817 44.376C4.82817 39.7005 5.17282 10.6815 5.24941 6.23787C5.78553 5.54235 7.20243 4.03537 9.65328 4.15129C12.602 4.26721 14.2103 6.23787 14.2869 6.31516C14.6316 6.7402 15.1294 7.01068 15.6655 7.04932C16.2017 7.08796 16.7378 6.89476 17.1207 6.50836C17.159 6.46972 19.8396 3.91945 22.9032 4.07401C26.388 4.26721 27.7666 6.12195 27.8049 6.19923C28.1113 6.66292 28.6091 6.97204 29.1835 7.04932C29.7579 7.12661 30.294 6.9334 30.7153 6.547C30.7536 6.50836 33.5491 3.95809 36.4595 4.03537C39.9443 4.15129 41.6675 6.16059 41.7441 6.19923C42.3951 7.04932 43.6206 7.16525 44.4247 6.50836C45.2289 5.85147 47.833 4.15129 50.1306 4.22857C52.2751 4.26721 54.1133 5.73555 54.2664 6.66292C54.4962 8.28582 54.5345 27.1424 54.4962 38.6572C54.4962 39.7391 55.3387 40.5892 56.4109 40.5892C57.4832 40.5892 58.3257 39.7391 58.3257 38.6572C58.3257 36.0683 58.364 28.0697 58.3257 20.6508C61.5807 22.3509 64.223 26.9105 65.1038 30.0404C69.814 46.4239 60.5085 54.3066 54.3047 59.5231C52.8878 60.7209 51.6624 61.7642 50.8199 62.7302C47.4117 66.7875 47.6415 72.9313 47.6798 73.7427V79.9252C47.6798 81.0071 48.5223 81.8572 49.5945 81.8572C50.6668 81.8572 51.5092 81.0071 51.5092 79.9252V73.7041C51.5092 73.6655 51.5092 73.6268 51.5092 73.5495C51.5092 73.5109 51.2412 69.1059 53.1559 66.0533H96.1224C96.1607 66.0533 96.199 66.0533 96.2756 66.0533C96.3139 66.0533 101.484 65.7055 104.509 68.2944C105.236 68.9127 106.156 70.0333 107.228 71.347C109.564 74.1291 112.781 78.0318 117.376 80.9299V123.434C117.414 123.512 117.414 123.55 117.414 123.589ZM139.434 79.7707C123.197 84.5234 115.385 75.1338 110.215 68.874C109.028 67.4443 107.994 66.2078 107.036 65.3578C103.015 61.9188 96.9266 62.1506 96.1224 62.1892H57.1385C63.304 56.9728 74.103 47.4286 68.7801 28.9585C68.512 28.0311 68.1291 27.0264 67.6695 25.9831H95.165C95.6246 25.9831 100.603 26.0218 105.849 24.0898C112.168 21.7327 122.239 18.9119 125.226 18.9119C129.86 18.9119 158.619 19.2597 163.023 19.337C163.712 19.878 165.206 21.3076 165.091 23.7806C164.976 26.756 163.023 28.3789 162.946 28.4561C162.525 28.8039 162.257 29.3062 162.219 29.8472C162.18 30.3882 162.372 30.9291 162.755 31.3155C162.793 31.3542 165.321 34.059 165.167 37.1502C164.976 40.6665 163.138 42.0576 163.061 42.0962C162.602 42.4053 162.295 42.9077 162.219 43.4873C162.142 44.0669 162.334 44.6078 162.717 45.0329C162.755 45.0715 165.282 47.8923 165.206 50.8289C165.091 54.3452 163.1 56.0841 163.061 56.1613C162.219 56.8182 162.104 58.0547 162.755 58.8662C163.406 59.6776 165.091 62.3052 165.014 64.6236C164.976 66.7875 163.521 68.6422 162.602 68.7968C160.993 69.0286 142.306 69.0672 130.894 69.0286C129.822 69.0286 128.979 69.8787 128.979 70.9606C128.979 72.0426 129.822 72.8926 130.894 72.8926C132.694 72.8926 137.136 72.9313 142.152 72.9313C144.259 72.9313 146.48 72.9313 148.663 72.9313C147.361 75.327 144.22 78.341 139.434 79.7707Z" fill="white"/>
</svg>
