<svg width="197" height="206" viewBox="0 0 197 206" fill="none" xmlns="http://www.w3.org/2000/svg">
<path d="M108.43 52.1924H97.937C94.6805 52.1924 91.9868 54.8626 91.9868 58.1802V112.434C91.9868 114.376 92.9115 116.197 94.3991 117.289L122.261 137.68C123.306 138.449 124.512 138.854 125.758 138.854C126.08 138.854 126.402 138.813 126.683 138.773C128.251 138.53 129.618 137.68 130.583 136.386L136.734 127.849C138.664 125.138 138.061 121.416 135.447 119.474L114.34 104.019V58.1397C114.381 54.8626 111.727 52.1924 108.43 52.1924ZM133.116 122.67C133.96 123.277 134.121 124.531 133.518 125.381L127.366 133.918C127.045 134.363 126.603 134.646 126.08 134.727C125.597 134.808 125.075 134.686 124.673 134.363L96.7711 113.972C96.2887 113.608 96.0072 113.041 96.0072 112.394V58.1397C96.0072 57.0878 96.8515 56.1977 97.937 56.1977H108.43C109.476 56.1977 110.36 57.0473 110.36 58.1397V104.95C110.36 105.597 110.682 106.204 111.204 106.568L133.116 122.67Z" fill="#FFCA43"/>
<path d="M101.435 184.288C99.7464 184.247 98.0578 184.167 96.4095 184.005C95.324 183.924 94.3189 184.733 94.2384 185.866C94.158 186.999 94.9621 187.97 96.0878 188.051C97.8568 188.212 99.6258 188.293 101.395 188.334H101.435C102.52 188.334 103.405 187.444 103.445 186.351C103.445 185.259 102.561 184.328 101.435 184.288Z" fill="#FFCA43"/>
<path d="M138.181 48.5107C138.744 47.5397 138.423 46.326 137.458 45.7596C127.085 39.6099 115.225 36.3733 103.123 36.3733C85.0316 36.3733 68.0655 43.4535 55.2806 56.3191C42.4957 69.1848 35.46 86.2581 35.46 104.464C35.46 122.67 42.4957 139.744 55.2806 152.609C68.0655 165.475 85.0316 172.555 103.123 172.555C121.215 172.555 138.181 165.475 150.966 152.609C163.751 139.744 170.787 122.67 170.787 104.464C170.787 87.5528 164.596 71.3291 153.298 58.7871C152.534 57.9779 151.288 57.897 150.444 58.6252C149.64 59.3939 149.559 60.6481 150.283 61.4978C160.897 73.2711 166.726 88.5238 166.726 104.464C166.726 139.784 138.181 168.469 103.123 168.469C68.0253 168.469 39.5206 139.744 39.5206 104.464C39.5206 69.1443 68.0655 40.4596 103.123 40.4596C114.501 40.4596 125.678 43.4939 135.407 49.2794C136.412 49.8054 137.619 49.4817 138.181 48.5107Z" fill="#FFCA43"/>
<path d="M103.164 20.5138C80.8905 20.5138 59.9442 29.2527 44.1842 45.1123C28.4242 60.9314 19.7803 82.01 19.7803 104.424C19.7803 124.451 26.8964 143.87 39.8421 159.042C52.627 174.052 70.3168 184.086 89.6148 187.241C90.7003 187.403 91.7456 186.675 91.9064 185.583C92.0672 184.49 91.3435 183.438 90.258 183.277C71.8848 180.242 55.0795 170.735 42.8574 156.412C30.555 141.969 23.8007 123.52 23.8007 104.424C23.8007 83.0619 32.0425 63.0352 47.0386 47.9444C62.0348 32.8535 81.976 24.5596 103.164 24.5596C124.391 24.5596 144.292 32.8535 159.288 47.9444C174.285 63.0352 182.526 83.1024 182.526 104.424C182.526 146.702 149.72 181.739 107.827 184.167C106.702 184.248 105.857 185.178 105.938 186.311C106.018 187.403 106.903 188.212 107.948 188.212C107.988 188.212 108.028 188.212 108.068 188.212C152.092 185.623 186.547 148.847 186.547 104.424C186.547 82.01 177.863 60.9314 162.103 45.0718C146.383 29.2527 125.437 20.5138 103.164 20.5138Z" fill="#FFCA43"/>
<path d="M145.941 57.0475C146.343 57.4117 146.825 57.5735 147.308 57.5735C147.871 57.5735 148.393 57.3307 148.795 56.9262C149.559 56.117 149.479 54.8223 148.675 54.0536C146.825 52.3544 144.896 50.7765 142.885 49.32C142.001 48.6727 140.714 48.875 140.071 49.7651C139.428 50.6552 139.629 51.9498 140.513 52.5971C142.403 53.9323 144.212 55.4697 145.941 57.0475Z" fill="#FFCA43"/>
<path d="M56.7279 18.2078C58.9391 18.2078 60.3865 16.6703 60.3061 14.7283C60.3061 12.7459 58.9391 11.2084 56.8485 11.168C54.7981 11.168 53.3105 12.7054 53.3105 14.7283C53.3508 16.6703 54.7177 18.2078 56.7279 18.2078Z" fill="#FFCA43"/>
<path d="M163.59 187.686C161.54 187.686 160.052 189.224 160.052 191.247C160.052 193.189 161.46 194.726 163.43 194.726C165.641 194.726 167.088 193.189 167.008 191.247C167.008 189.224 165.681 187.686 163.59 187.686Z" fill="#FFCA43"/>
<path d="M11.3375 137.721C9.28711 137.721 7.79956 139.258 7.79956 141.281C7.79956 143.223 9.2067 144.76 11.1767 144.76C13.3879 144.76 14.8353 143.223 14.7549 141.281C14.7951 139.258 13.4683 137.721 11.3375 137.721Z" fill="#FFCA43"/>
<path d="M177.22 16.4276C178.345 16.4276 179.23 15.5375 179.23 14.4047V2.22688C179.23 1.09405 178.345 0.203979 177.22 0.203979C176.094 0.203979 175.209 1.09405 175.209 2.22688V14.4047C175.209 15.4971 176.134 16.4276 177.22 16.4276Z" fill="#FFCA43"/>
<path d="M177.22 39.9742C178.345 39.9742 179.23 39.0842 179.23 37.9513V25.733C179.23 24.6002 178.345 23.7101 177.22 23.7101C176.094 23.7101 175.209 24.6002 175.209 25.733V37.9109C175.209 39.0437 176.134 39.9742 177.22 39.9742Z" fill="#FFCA43"/>
<path d="M194.99 18.0459H182.888C181.763 18.0459 180.878 18.936 180.878 20.0688C180.878 21.2017 181.763 22.0918 182.888 22.0918H194.99C196.116 22.0918 197 21.2017 197 20.0688C197 18.936 196.116 18.0459 194.99 18.0459Z" fill="#FFCA43"/>
<path d="M159.49 22.0918H171.591C172.717 22.0918 173.601 21.2017 173.601 20.0688C173.601 18.936 172.717 18.0459 171.591 18.0459H159.49C158.364 18.0459 157.479 18.936 157.479 20.0688C157.479 21.2017 158.364 22.0918 159.49 22.0918Z" fill="#FFCA43"/>
<path d="M19.7805 27.1085C20.9062 27.1085 21.7906 26.2184 21.7906 25.0856V12.9077C21.7906 11.7748 20.9062 10.8848 19.7805 10.8848C18.6547 10.8848 17.7703 11.7748 17.7703 12.9077V25.0856C17.7703 26.178 18.6547 27.1085 19.7805 27.1085Z" fill="#FFCA43"/>
<path d="M19.7805 50.6552C20.9062 50.6552 21.7906 49.7651 21.7906 48.6322V36.4138C21.7906 35.281 20.9062 34.3909 19.7805 34.3909C18.6547 34.3909 17.7703 35.281 17.7703 36.4138V48.5918C17.7703 49.7246 18.6547 50.6552 19.7805 50.6552Z" fill="#FFCA43"/>
<path d="M25.4089 32.7727H37.5104C38.6361 32.7727 39.5206 31.8826 39.5206 30.7497C39.5206 29.6168 38.6361 28.7267 37.5104 28.7267H25.4089C24.2832 28.7267 23.3987 29.6168 23.3987 30.7497C23.3987 31.8826 24.2832 32.7727 25.4089 32.7727Z" fill="#FFCA43"/>
<path d="M16.1218 30.7497C16.1218 29.6168 15.2373 28.7267 14.1116 28.7267H2.0102C0.884489 28.7267 0 29.6168 0 30.7497C0 31.8826 0.884489 32.7727 2.0102 32.7727H14.1116C15.2373 32.7727 16.1218 31.8826 16.1218 30.7497Z" fill="#FFCA43"/>
<path d="M25.2883 166.122C24.1626 166.122 23.2781 167.012 23.2781 168.145V180.323C23.2781 181.456 24.1626 182.346 25.2883 182.346C26.414 182.346 27.2985 181.456 27.2985 180.323V168.145C27.2985 167.053 26.3738 166.122 25.2883 166.122Z" fill="#FFCA43"/>
<path d="M25.2883 189.669C24.1626 189.669 23.2781 190.559 23.2781 191.692V203.87C23.2781 205.002 24.1626 205.892 25.2883 205.892C26.414 205.892 27.2985 205.002 27.2985 203.87V191.692C27.2985 190.599 26.3738 189.669 25.2883 189.669Z" fill="#FFCA43"/>
<path d="M43.0184 184.005H30.9169C29.7912 184.005 28.9067 184.895 28.9067 186.028C28.9067 187.16 29.7912 188.051 30.9169 188.051H43.0184C44.1441 188.051 45.0286 187.16 45.0286 186.028C45.0286 184.895 44.1441 184.005 43.0184 184.005Z" fill="#FFCA43"/>
<path d="M19.6596 184.005H7.51802C6.3923 184.005 5.50781 184.895 5.50781 186.028C5.50781 187.16 6.3923 188.051 7.51802 188.051H19.6194C20.7451 188.051 21.6296 187.16 21.6296 186.028C21.6296 184.895 20.7451 184.005 19.6596 184.005Z" fill="#FFCA43"/>
</svg>
