<svg width="195" height="197" viewBox="0 0 195 197" fill="none" xmlns="http://www.w3.org/2000/svg">
<path d="M60.5476 57.7576C60.931 57.7576 61.2761 57.6416 61.6212 57.4096C63.6535 56.0179 65.4941 54.8968 67.2964 53.969C68.255 53.4664 68.6001 52.3066 68.1016 51.3788C67.6031 50.451 66.4528 50.0644 65.5325 50.567C63.6152 51.5721 61.6596 52.7705 59.5122 54.2396C58.6303 54.8195 58.4002 56.0566 58.9754 56.9071C59.3205 57.4483 59.8957 57.7576 60.5476 57.7576Z" fill="white"/>
<path d="M71.6678 131.711C74.352 133.799 77.2662 135.461 80.3722 136.698C80.6023 136.776 80.8324 136.853 81.0625 136.853C81.8294 136.853 82.5579 136.389 82.8264 135.616C83.2098 134.611 82.7497 133.49 81.7527 133.103C78.9535 131.982 76.3459 130.474 73.9685 128.619C73.1249 127.961 71.9362 128.116 71.2843 128.967C70.6708 129.856 70.8242 131.054 71.6678 131.711Z" fill="white"/>
<path d="M21.9721 179.223C20.0165 179.223 18.5977 180.692 18.5977 182.625C18.5977 184.48 19.9398 185.949 21.8571 185.949C23.9661 185.949 25.3849 184.48 25.3082 182.625C25.2698 180.73 23.9661 179.223 21.9721 179.223Z" fill="white"/>
<path d="M10.7369 62.5511C10.7369 60.6182 9.43313 59.1492 7.43914 59.1492C5.4835 59.1492 4.0647 60.6182 4.0647 62.5511C4.0647 64.4067 5.4068 65.8757 7.3241 65.8757C9.43313 65.8757 10.8136 64.4067 10.7369 62.5511Z" fill="white"/>
<path d="M194.948 55.5153C194.757 54.8581 194.258 54.3169 193.568 54.1622L167.57 47.281L168.988 45.8506L169.027 45.812C171.212 43.4925 172.44 40.3225 172.44 37.1525C172.44 30.0779 166.649 24.2791 159.555 24.2791C156.373 24.2791 153.267 25.5162 151.004 27.6811L150.199 28.4929L143.182 1.70251C142.99 1.04531 142.492 0.504094 141.84 0.310801C141.188 0.117508 140.459 0.310801 139.999 0.813363L120.75 19.988C120.29 20.4519 120.098 21.1091 120.213 21.7663L120.75 24.3178C111.93 21.2251 102.727 19.6401 93.2561 19.6401C70.9774 19.6401 50.0408 28.377 34.2808 44.2656C18.5208 60.1543 9.81641 81.2619 9.81641 103.723C9.81641 126.183 18.5208 147.291 34.2425 163.18C50.0025 179.068 70.9391 187.805 93.2178 187.805C115.497 187.805 136.433 179.068 152.193 163.18C167.953 147.291 176.619 126.183 176.619 103.723C176.619 94.5991 175.162 85.669 172.325 77.0481L173.59 77.3187C173.705 77.3574 173.858 77.3574 173.973 77.3574C174.472 77.3574 174.97 77.1641 175.354 76.7775L194.411 57.3709C194.91 56.907 195.102 56.1725 194.948 55.5153ZM168.605 37.1525C168.605 39.3947 167.723 41.5982 166.151 43.2219L99.238 110.797C97.5508 112.227 95.4418 113.039 93.2561 113.039C88.1562 113.039 84.0149 108.864 84.0149 103.723C84.0149 101.364 84.9352 99.0062 86.5073 97.3439C86.5073 97.3439 86.5073 97.3439 86.5073 97.3053C86.5073 97.3053 86.5457 97.3053 86.5457 97.2666L153.65 30.4645C155.184 28.9955 157.37 28.1063 159.555 28.1063C164.54 28.145 168.605 32.2042 168.605 37.1525ZM140.306 5.9163L147.016 31.6629L140.076 38.5828L133.749 12.4496L140.306 5.9163ZM130.566 15.6196L136.893 41.7528L129.799 48.7887L125.275 27.3332C125.275 27.0626 125.236 26.8306 125.121 26.5987L124.163 21.9596L130.566 15.6196ZM172.823 103.723C172.823 125.139 164.54 145.319 149.509 160.435C134.478 175.589 114.5 183.939 93.2561 183.939C72.0128 183.939 51.9964 175.589 36.965 160.435C21.9336 145.281 13.651 125.139 13.651 103.723C13.651 82.3057 21.9336 62.1259 36.965 47.0104C51.9964 31.8562 71.9744 23.506 93.2178 23.506C103.034 23.506 112.582 25.2843 121.632 28.8022L126.54 52.036L125.351 53.1958C115.765 46.9717 104.645 43.6858 93.1795 43.6858C85.6637 43.6858 78.3014 45.0775 71.3225 47.8609C70.3256 48.2475 69.8654 49.3686 70.2489 50.3737C70.6323 51.3788 71.7443 51.8427 72.7413 51.4561C79.26 48.866 86.1622 47.5516 93.1795 47.5516C103.609 47.5516 113.733 50.451 122.552 55.9792L107.252 71.2107C102.804 69.2778 98.0877 68.2726 93.1795 68.2726C73.7766 68.2726 58.0167 84.1613 58.0167 103.723C58.0167 112.034 60.9309 120.075 66.1842 126.454C66.5677 126.918 67.1045 127.15 67.6414 127.15C68.0632 127.15 68.5233 126.995 68.8684 126.686C69.6737 125.99 69.7887 124.792 69.0985 123.98C64.4203 118.336 61.8129 111.145 61.8129 103.761C61.8129 86.3649 75.8473 72.1772 93.1411 72.1772C96.9757 72.1772 100.695 72.873 104.223 74.1874L83.7465 94.5605C83.7081 94.5605 83.7081 94.5992 83.7081 94.6378C83.6698 94.6765 83.6698 94.6765 83.6314 94.6765C81.369 97.0346 80.0653 100.359 80.0653 103.723C80.0653 110.99 85.9322 116.905 93.1411 116.905C96.2471 116.905 99.2764 115.784 101.654 113.735C101.692 113.735 101.692 113.697 101.692 113.697C101.73 113.697 101.73 113.658 101.769 113.658L122.514 92.7049C123.817 96.2228 124.469 99.8954 124.469 103.723C124.469 121.119 110.435 135.307 93.1411 135.307C91.7223 135.307 90.2269 135.191 88.693 134.997C87.6577 134.843 86.6607 135.577 86.5457 136.66C86.3923 137.704 87.1209 138.709 88.1945 138.825C89.8817 139.057 91.5689 139.173 93.1411 139.173C112.544 139.173 128.304 123.284 128.304 103.723C128.304 98.8129 127.345 94.1352 125.466 89.7282L140.689 74.342C146.058 83.1562 148.895 93.2461 148.895 103.723C148.895 134.688 123.894 159.894 93.1795 159.894C62.4647 159.894 37.4635 134.688 37.4635 103.723C37.4635 87.254 44.5957 71.6746 57.0197 60.9662C57.8249 60.2703 57.9016 59.0332 57.2497 58.2601C56.5595 57.4482 55.3325 57.3709 54.5656 58.0281C41.2597 69.4711 33.6673 86.1329 33.6673 103.723C33.6673 136.853 60.3941 163.759 93.2178 163.759C126.042 163.759 152.768 136.814 152.768 103.723C152.768 92.241 149.547 81.146 143.489 71.5586L144.026 71.0174L167.915 76.159C171.174 84.9732 172.823 94.2512 172.823 103.723ZM173.398 73.3369L147.323 67.7314L154.686 60.2703L179.802 66.8036L173.398 73.3369ZM182.946 63.6336L157.83 57.1003L164.425 50.451L189.388 57.0616L182.946 63.6336Z" fill="white"/>
<path d="M19.0193 19.176C20.093 19.176 20.9366 18.3255 20.9366 17.2431V5.49102C20.9366 4.40859 20.093 3.55811 19.0193 3.55811C17.9457 3.55811 17.1021 4.40859 17.1021 5.49102V17.2431C17.1021 18.3255 17.984 19.176 19.0193 19.176Z" fill="white"/>
<path d="M19.0193 41.9073C20.093 41.9073 20.9366 41.0569 20.9366 39.9744V28.1836C20.9366 27.1012 20.093 26.2507 19.0193 26.2507C17.9457 26.2507 17.1021 27.1012 17.1021 28.1836V39.9358C17.1021 41.0182 17.984 41.9073 19.0193 41.9073Z" fill="white"/>
<path d="M24.4644 24.6658H36.1214C37.1951 24.6658 38.0387 23.8153 38.0387 22.7328C38.0387 21.6503 37.1951 20.7998 36.1214 20.7998H24.4644C23.3907 20.7998 22.5471 21.6503 22.5471 22.7328C22.5471 23.8153 23.3907 24.6658 24.4644 24.6658Z" fill="white"/>
<path d="M15.5299 22.7328C15.5299 21.6504 14.6863 20.7999 13.6126 20.7999H1.91727C0.8436 20.7999 0 21.6504 0 22.7328C0 23.8153 0.8436 24.6658 1.91727 24.6658H13.5743C14.648 24.6658 15.5299 23.7766 15.5299 22.7328Z" fill="white"/>
<path d="M169.487 158.541C168.413 158.541 167.57 159.391 167.57 160.473V172.226C167.57 173.308 168.413 174.159 169.487 174.159C170.561 174.159 171.404 173.308 171.404 172.226V160.473C171.404 159.391 170.561 158.541 169.487 158.541Z" fill="white"/>
<path d="M169.487 181.233C168.413 181.233 167.57 182.084 167.57 183.166V194.918C167.57 196.001 168.413 196.851 169.487 196.851C170.561 196.851 171.404 196.001 171.404 194.918V183.166C171.404 182.122 170.561 181.233 169.487 181.233Z" fill="white"/>
<path d="M186.589 175.782H174.932C173.858 175.782 173.015 176.633 173.015 177.715C173.015 178.798 173.858 179.648 174.932 179.648H186.589C187.663 179.648 188.506 178.798 188.506 177.715C188.506 176.633 187.663 175.782 186.589 175.782Z" fill="white"/>
<path d="M164.042 175.782H152.385C151.311 175.782 150.468 176.633 150.468 177.715C150.468 178.798 151.311 179.648 152.385 179.648H164.042C165.116 179.648 165.959 178.798 165.959 177.715C165.959 176.633 165.116 175.782 164.042 175.782Z" fill="white"/>
</svg>
