<svg width="190" height="196" viewBox="0 0 190 196" fill="none" xmlns="http://www.w3.org/2000/svg">
<path d="M187.109 168.867C187.109 168.867 187.071 168.867 187.109 168.867L153.378 134.857C151.502 132.965 148.975 131.923 146.257 131.923H144.534C153.034 119.686 157.513 105.325 157.513 90.1924C157.513 50.0058 125.084 17.3469 85.2654 17.3469C45.4468 17.3469 13.0176 50.0058 13.0176 90.1924C13.0176 130.379 45.4468 163.038 85.2654 163.038C100.274 163.038 114.517 158.521 126.654 149.951V151.688C126.654 154.391 127.688 156.938 129.564 158.869L163.295 192.879C165.209 194.809 167.698 195.851 170.378 195.851C170.378 195.851 170.378 195.851 170.416 195.851C173.096 195.851 175.585 194.77 177.461 192.879L187.033 183.228C190.976 179.252 190.976 172.843 187.109 168.867ZM184.353 180.448L174.781 190.099C173.632 191.257 172.101 191.914 170.454 191.914C168.808 191.914 167.238 191.257 166.051 190.061L132.32 156.051C131.172 154.893 130.521 153.31 130.521 151.611V146.052C130.521 145.319 130.1 144.624 129.449 144.315C129.181 144.199 128.913 144.122 128.606 144.122C128.185 144.122 127.764 144.276 127.42 144.547C115.321 154.082 100.733 159.139 85.3037 159.139C47.5526 159.139 16.8846 128.179 16.8846 90.1538C16.8846 52.0904 47.5909 21.1687 85.3037 21.1687C123.055 21.1687 153.723 52.129 153.723 90.1538C153.723 105.711 148.707 120.419 139.25 132.618C138.791 133.197 138.714 134.008 139.021 134.664C139.327 135.32 140.016 135.745 140.743 135.745H146.257C147.941 135.745 149.473 136.401 150.66 137.559L184.391 171.569C186.765 174.04 186.765 178.016 184.353 180.448Z" fill="#FFCA43"/>
<path d="M85.1889 36.1084C55.7461 36.1084 31.7783 60.2744 31.7783 89.9608C31.7783 119.647 55.7461 143.813 85.1889 143.813C114.632 143.813 138.599 119.647 138.599 89.9608C138.599 60.2744 114.632 36.1084 85.1889 36.1084ZM85.1889 139.953C57.8519 139.953 35.607 117.524 35.607 89.9608C35.607 62.3976 57.8519 39.9688 85.1889 39.9688C112.526 39.9688 134.771 62.3976 134.771 89.9608C134.771 117.524 112.526 139.953 85.1889 139.953Z" fill="#FFCA43"/>
<path d="M84.9589 68.8444C87.1796 68.8444 89.1705 68.0337 90.5871 66.6053C91.8889 65.2542 92.5781 63.4012 92.5398 61.3938C92.5398 57.0701 89.4385 53.9045 85.1886 53.9045C80.9388 53.9045 77.7227 57.1473 77.7227 61.4324C77.7227 65.6788 80.8239 68.8444 84.9589 68.8444ZM85.1886 57.8036C87.3327 57.8036 88.7111 59.2319 88.7111 61.471C88.7111 61.5096 88.7111 61.5096 88.7111 61.5482C88.7494 62.5133 88.4431 63.3626 87.8305 63.9802C87.1413 64.6751 86.1841 65.0611 84.9589 65.0611C82.968 65.0611 81.5514 63.5556 81.5514 61.5096C81.5514 59.3091 83.0829 57.8036 85.1886 57.8036Z" fill="#FFCA43"/>
<path d="M89.5917 73.3225H80.7474C79.6753 73.3225 78.833 74.1718 78.833 75.2527V124.395C78.833 125.476 79.6753 126.326 80.7474 126.326H89.5917C90.6637 126.326 91.506 125.476 91.506 124.395V75.2527C91.506 74.1718 90.6637 73.3225 89.5917 73.3225ZM87.6773 122.465H82.6617V77.1829H87.6773V122.465Z" fill="#FFCA43"/>
<path d="M163.792 36.1855C164.864 36.1855 165.707 35.3363 165.707 34.2553V23.2532C165.707 22.1723 164.864 21.323 163.792 21.323C162.72 21.323 161.878 22.1723 161.878 23.2532V34.2553C161.878 35.3363 162.72 36.1855 163.792 36.1855Z" fill="#FFCA43"/>
<path d="M163.792 57.4562C164.864 57.4562 165.707 56.6069 165.707 55.526V44.5239C165.707 43.443 164.864 42.5938 163.792 42.5938C162.72 42.5938 161.878 43.443 161.878 44.5239V55.526C161.878 56.6069 162.72 57.4562 163.792 57.4562Z" fill="#FFCA43"/>
<path d="M168.885 41.3198H179.796C180.868 41.3198 181.711 40.4705 181.711 39.3896C181.711 38.3087 180.868 37.4595 179.796 37.4595H168.885C167.813 37.4595 166.97 38.3087 166.97 39.3896C166.97 40.4705 167.813 41.3198 168.885 41.3198Z" fill="#FFCA43"/>
<path d="M147.75 41.3198H158.662C159.734 41.3198 160.576 40.4705 160.576 39.3896C160.576 38.3087 159.734 37.4595 158.662 37.4595H147.75C146.678 37.4595 145.836 38.3087 145.836 39.3896C145.836 40.4705 146.717 41.3198 147.75 41.3198Z" fill="#FFCA43"/>
<path d="M27.2606 151.495C26.1885 151.495 25.3462 152.345 25.3462 153.426V164.428C25.3462 165.509 26.1885 166.358 27.2606 166.358C28.3326 166.358 29.1749 165.509 29.1749 164.428V153.426C29.1749 152.345 28.3326 151.495 27.2606 151.495Z" fill="#FFCA43"/>
<path d="M27.2606 172.766C26.1885 172.766 25.3462 173.615 25.3462 174.696V185.737C25.3462 186.818 26.1885 187.667 27.2606 187.667C28.3326 187.667 29.1749 186.818 29.1749 185.737V174.735C29.1749 173.654 28.3326 172.766 27.2606 172.766Z" fill="#FFCA43"/>
<path d="M43.2647 167.632H32.3528C31.2808 167.632 30.4385 168.481 30.4385 169.562C30.4385 170.643 31.2808 171.492 32.3528 171.492H43.2647C44.3367 171.492 45.179 170.643 45.179 169.562C45.179 168.481 44.3367 167.632 43.2647 167.632Z" fill="#FFCA43"/>
<path d="M22.1685 167.632H11.2566C10.1846 167.632 9.34229 168.481 9.34229 169.562C9.34229 170.643 10.1846 171.492 11.2566 171.492H22.1685C23.2405 171.492 24.0828 170.643 24.0828 169.562C24.0828 168.481 23.2405 167.632 22.1685 167.632Z" fill="#FFCA43"/>
<path d="M17.9183 16.4204C18.9903 16.4204 19.8326 15.5711 19.8326 14.4902V3.48806C19.8326 2.40715 18.9903 1.55786 17.9183 1.55786C16.8462 1.55786 16.0039 2.40715 16.0039 3.48806V14.4902C16.0039 15.5711 16.8845 16.4204 17.9183 16.4204Z" fill="#FFCA43"/>
<path d="M17.9183 37.7296C18.9903 37.7296 19.8326 36.8803 19.8326 35.7994V24.7588C19.8326 23.6779 18.9903 22.8286 17.9183 22.8286C16.8462 22.8286 16.0039 23.6779 16.0039 24.7588V35.7608C16.0039 36.8417 16.8845 37.7296 17.9183 37.7296Z" fill="#FFCA43"/>
<path d="M23.0105 21.5547H33.9224C34.9944 21.5547 35.8367 20.7054 35.8367 19.6245C35.8367 18.5436 34.9944 17.6943 33.9224 17.6943H23.0105C21.9385 17.6943 21.0962 18.5436 21.0962 19.6245C21.0962 20.7054 21.9385 21.5547 23.0105 21.5547Z" fill="#FFCA43"/>
<path d="M14.7406 19.6245C14.7406 18.5436 13.8982 17.6943 12.8262 17.6943H1.91436C0.842317 17.6943 0 18.5436 0 19.6245C0 20.7054 0.842317 21.5547 1.91436 21.5547H12.8262C13.8982 21.5547 14.7406 20.7054 14.7406 19.6245Z" fill="#FFCA43"/>
<path d="M7.00644 53.1713C5.16866 53.1713 3.82861 54.561 3.82861 56.3754C3.82861 58.1126 5.09209 59.5023 6.89158 59.5023C8.9208 59.5023 10.1843 58.1126 10.1077 56.3754C10.1077 54.561 8.9208 53.1713 7.00644 53.1713Z" fill="#FFCA43"/>
<path d="M164.213 125.052C164.213 126.789 165.477 128.179 167.276 128.179C169.306 128.179 170.569 126.789 170.492 125.052C170.492 123.237 169.267 121.848 167.391 121.848C165.553 121.886 164.213 123.276 164.213 125.052Z" fill="#FFCA43"/>
<path d="M131.593 6.57629C133.622 6.57629 134.885 5.18658 134.809 3.44943C134.809 1.63508 133.584 0.245361 131.708 0.245361C129.87 0.245361 128.53 1.63508 128.53 3.44943C128.53 5.18658 129.793 6.57629 131.593 6.57629Z" fill="#FFCA43"/>
<path d="M98.0919 178.518C96.2541 178.518 94.9141 179.908 94.9141 181.722C94.9141 183.459 96.1775 184.849 97.977 184.849C100.006 184.849 101.27 183.459 101.193 181.722C101.193 179.908 99.968 178.518 98.0919 178.518Z" fill="#FFCA43"/>
</svg>
