<svg width="195" height="175" viewBox="0 0 195 175" fill="none" xmlns="http://www.w3.org/2000/svg">
<path d="M1.92764 26.0777C3.00712 26.0777 3.85528 25.2204 3.85528 24.1292V18.4393C3.85528 14.7759 6.82384 11.7751 10.4478 11.7751H118.897C122.521 11.7751 125.489 14.7759 125.489 18.4393V59.2038C125.489 60.295 126.337 61.1523 127.417 61.1523C128.496 61.1523 129.345 60.295 129.345 59.2038V18.4393C129.345 12.5935 124.641 7.87793 118.897 7.87793H10.4478C4.66489 7.87793 0 12.6325 0 18.4393V24.0902C0 25.1814 0.848162 26.0777 1.92764 26.0777Z" fill="#FFCA43"/>
<path d="M108.757 26.8184H18.4281C17.3486 26.8184 16.5005 27.6757 16.5005 28.7668C16.5005 29.858 17.3486 30.7153 18.4281 30.7153H108.757C109.837 30.7153 110.685 29.858 110.685 28.7668C110.685 27.6757 109.837 26.8184 108.757 26.8184Z" fill="#FFCA43"/>
<path d="M110.685 51.1758C110.685 50.0848 109.837 49.2275 108.758 49.2275H40.789C39.7095 49.2275 38.8613 50.0848 38.8613 51.1758C38.8613 52.2668 39.7095 53.124 40.789 53.124H108.758C109.837 53.124 110.685 52.2278 110.685 51.1758Z" fill="#FFCA43"/>
<path d="M18.4281 53.124H29.8398C30.9192 53.124 31.7674 52.2668 31.7674 51.1758C31.7674 50.0848 30.9192 49.2275 29.8398 49.2275H18.4281C17.3486 49.2275 16.5005 50.0848 16.5005 51.1758C16.5005 52.2668 17.3486 53.124 18.4281 53.124Z" fill="#FFCA43"/>
<path d="M18.4281 72.7661H55.593C56.6725 72.7661 57.5207 71.9088 57.5207 70.8176C57.5207 69.7265 56.6725 68.8691 55.593 68.8691H18.4281C17.3486 68.8691 16.5005 69.7265 16.5005 70.8176C16.5005 71.9088 17.3486 72.7661 18.4281 72.7661Z" fill="#FFCA43"/>
<path d="M193.072 92.7583C191.993 92.7583 191.145 93.6157 191.145 94.7069V142.954C191.145 146.617 188.176 149.618 184.552 149.618H175.222C174.181 149.618 173.295 150.475 173.295 151.528L173.025 167.311L157.18 150.242C156.833 149.852 156.293 149.618 155.792 149.618H76.1417C72.5177 149.618 69.5491 146.617 69.5491 142.954V131.34C69.5491 130.249 68.701 129.392 67.6215 129.392C66.542 129.392 65.6938 130.249 65.6938 131.34V142.954C65.6938 148.8 70.3973 153.515 76.1417 153.515H154.944L173.449 173.508C173.834 173.898 174.336 174.131 174.837 174.131C175.068 174.131 175.299 174.092 175.531 174.014C176.263 173.742 176.764 173.04 176.764 172.222L177.073 153.554H184.514C190.296 153.554 194.961 148.8 194.961 142.993V94.7069C195 93.6157 194.152 92.7583 193.072 92.7583Z" fill="#FFCA43"/>
<path d="M184.552 68.9468H76.1418C70.3588 68.9468 65.6939 73.7013 65.6939 79.5081V88.5885H39.2467C38.707 88.5885 38.2058 88.8223 37.8588 89.2121L22.0136 106.282L21.7438 90.4981C21.7438 89.4459 20.8571 88.5885 19.8161 88.5885H10.4478C6.82384 88.5885 3.85528 85.5877 3.85528 81.9244V33.6385C3.85528 32.5473 3.00712 31.6899 1.92764 31.6899C0.848162 31.6899 0 32.5473 0 33.6385V81.8854C0 87.7311 4.70344 92.4467 10.4478 92.4467H17.8885L18.1969 111.114C18.1969 111.894 18.6981 112.595 19.4306 112.907C19.6619 112.985 19.8932 113.024 20.1246 113.024C20.6643 113.024 21.1655 112.79 21.5125 112.4L40.0178 92.4077H65.6554V120.194C65.6554 121.286 66.5036 122.143 67.583 122.143C68.6625 122.143 69.5107 121.286 69.5107 120.194V79.5081C69.5107 75.8448 72.4792 72.844 76.1032 72.844H184.552C188.176 72.844 191.145 75.8448 191.145 79.5081V85.159C191.145 86.2502 191.993 87.1076 193.072 87.1076C194.152 87.1076 195 86.2502 195 85.159V79.5081C195 73.6624 190.335 68.9468 184.552 68.9468Z" fill="#FFCA43"/>
<path d="M176.572 87.8481H86.2426C85.1631 87.8481 84.3149 88.7056 84.3149 89.7969C84.3149 90.8882 85.1631 91.7456 86.2426 91.7456H176.572C177.651 91.7456 178.499 90.8882 178.499 89.7969C178.499 88.7056 177.651 87.8481 176.572 87.8481Z" fill="#FFCA43"/>
<path d="M86.2426 114.154H154.211C155.291 114.154 156.139 113.296 156.139 112.205C156.139 111.114 155.291 110.257 154.211 110.257H86.2426C85.1631 110.257 84.3149 111.114 84.3149 112.205C84.3149 113.296 85.1631 114.154 86.2426 114.154Z" fill="#FFCA43"/>
<path d="M176.572 110.257H165.16C164.081 110.257 163.232 111.114 163.232 112.205C163.232 113.296 164.081 114.154 165.16 114.154H176.572C177.651 114.154 178.499 113.296 178.499 112.205C178.499 111.114 177.651 110.257 176.572 110.257Z" fill="#FFCA43"/>
<path d="M86.8209 129.898C85.7415 129.898 84.8933 130.756 84.8933 131.847C84.8933 132.938 85.7415 133.795 86.8209 133.795H100.893C101.972 133.795 102.82 132.938 102.82 131.847C102.82 130.756 101.972 129.898 100.893 129.898H86.8209Z" fill="#FFCA43"/>
<path d="M176.572 129.898H110.377C109.297 129.898 108.449 130.756 108.449 131.847C108.449 132.938 109.297 133.795 110.377 133.795H176.572C177.651 133.795 178.499 132.938 178.499 131.847C178.499 130.756 177.651 129.898 176.572 129.898Z" fill="#FFCA43"/>
<path d="M146.154 54.0596C148.313 54.0596 149.701 52.5787 149.623 50.708C149.623 48.7595 148.313 47.2396 146.269 47.2786C144.303 47.2786 142.877 48.7595 142.877 50.708C142.877 52.5787 144.226 54.0596 146.154 54.0596Z" fill="#FFCA43"/>
<path d="M168.244 16.4521C169.324 16.4521 170.172 15.5948 170.172 14.5036V2.65611C170.172 1.5649 169.324 0.70752 168.244 0.70752C167.165 0.70752 166.317 1.5649 166.317 2.65611V14.5036C166.317 15.5948 167.165 16.4521 168.244 16.4521Z" fill="#FFCA43"/>
<path d="M168.244 39.3672C169.324 39.3672 170.172 38.5098 170.172 37.4186V25.5321C170.172 24.4409 169.324 23.5835 168.244 23.5835C167.165 23.5835 166.317 24.4409 166.317 25.5321V37.4186C166.317 38.5098 167.165 39.3672 168.244 39.3672Z" fill="#FFCA43"/>
<path d="M173.719 21.9854H185.439C186.518 21.9854 187.367 21.1281 187.367 20.0371C187.367 18.9461 186.518 18.0889 185.439 18.0889H173.719C172.639 18.0889 171.791 18.9461 171.791 20.0371C171.791 21.1281 172.639 21.9854 173.719 21.9854Z" fill="#FFCA43"/>
<path d="M151.05 21.9854H162.808C163.888 21.9854 164.736 21.1281 164.736 20.0371C164.736 18.9461 163.888 18.0889 162.808 18.0889H151.05C149.97 18.0889 149.122 18.9461 149.122 20.0371C149.122 21.1281 149.97 21.9854 151.05 21.9854Z" fill="#FFCA43"/>
<path d="M59.3328 165.246C57.3666 165.246 55.9402 166.727 55.9402 168.676C55.9402 170.546 57.2895 172.027 59.2172 172.027C61.3761 172.027 62.764 170.546 62.6869 168.676C62.6869 166.727 61.3761 165.207 59.3328 165.246Z" fill="#FFCA43"/>
<path d="M34.2348 118.714C33.1553 118.714 32.3071 119.571 32.3071 120.662V132.51C32.3071 133.601 33.1553 134.458 34.2348 134.458C35.3143 134.458 36.1624 133.601 36.1624 132.51V120.662C36.1624 119.61 35.2757 118.714 34.2348 118.714Z" fill="#FFCA43"/>
<path d="M34.2348 141.59C33.1553 141.59 32.3071 142.447 32.3071 143.538V155.425C32.3071 156.516 33.1553 157.374 34.2348 157.374C35.3143 157.374 36.1624 156.516 36.1624 155.425V143.538C36.1624 142.486 35.2757 141.59 34.2348 141.59Z" fill="#FFCA43"/>
<path d="M51.4294 136.095H39.7094C38.6299 136.095 37.7817 136.953 37.7817 138.044C37.7817 139.135 38.6299 139.992 39.7094 139.992H51.4294C52.5089 139.992 53.3571 139.135 53.3571 138.044C53.3571 136.953 52.4703 136.095 51.4294 136.095Z" fill="#FFCA43"/>
<path d="M28.799 136.095H17.0404C15.961 136.095 15.1128 136.953 15.1128 138.044C15.1128 139.135 15.961 139.992 17.0404 139.992H28.799C29.8785 139.992 30.7267 139.135 30.7267 138.044C30.7267 136.953 29.8399 136.095 28.799 136.095Z" fill="#FFCA43"/>
</svg>
