<svg width="196" height="198" viewBox="0 0 196 198" fill="none" xmlns="http://www.w3.org/2000/svg">
<path d="M181.406 53.5918H176.268C176.268 53.2839 176.268 52.976 176.268 52.6681C176.268 37.544 164.496 25.2676 150.04 25.2676C136.965 25.2676 126.075 35.3119 124.12 48.4349H97.5857C96.1287 48.4349 94.7866 49.0122 93.7897 49.8973C92.7927 48.9737 91.4507 48.4349 89.9936 48.4349H17.83C14.8775 48.4349 12.4618 50.7055 12.1934 53.5918H6.25009C2.79912 53.5918 0 56.3241 0 59.7107V186.669C0 189.979 2.72243 192.75 6.09671 192.788C15.5677 193.019 40.5297 193.134 80.2159 193.096H83.245C89.6485 193.096 92.2176 196.252 92.2942 196.367C92.601 196.79 93.0995 197.06 93.5979 197.137C93.713 197.137 93.828 197.175 93.9047 197.175C94.4799 197.175 95.055 196.906 95.4385 196.406C95.5535 196.29 98.0842 193.134 104.488 193.134H107.517C147.165 193.173 172.088 193.058 181.559 192.827C184.934 192.788 187.656 190.017 187.656 186.708V59.7107C187.656 56.3241 184.857 53.5918 181.406 53.5918ZM150.04 29.116C162.387 29.116 172.433 39.699 172.433 52.6681C172.433 57.2477 170.976 61.8273 168.484 65.2139C167.909 66.0221 166.989 67.0226 165.992 68.1002C163.576 70.7556 160.585 74.0652 159.55 77.3363C159.55 77.3748 159.511 77.4518 159.511 77.4903H139.342C139.227 77.1054 139.074 76.7591 138.921 76.3742C137.464 72.9107 135.048 70.1014 133.092 67.8308C132.517 67.1381 131.98 66.5224 131.52 65.9451C128.99 62.674 127.647 58.0944 127.647 52.6681C127.647 51.9754 127.686 51.2827 127.724 50.59C127.724 50.513 127.763 50.4361 127.763 50.3591V50.3206C128.913 38.4291 138.461 29.116 150.04 29.116ZM158.86 86.7264C158.86 87.65 158.898 88.5352 158.86 89.3048C158.821 91.229 158.131 94.1538 156.137 96.078C154.603 97.5789 152.533 98.3101 149.964 98.2716C143.867 98.1946 140.8 95.1929 140.684 89.0354C140.684 88.6891 140.684 88.3043 140.684 87.9194C140.684 86.0337 140.684 83.7631 140.301 81.3387H158.936C158.821 83.0704 158.821 84.9562 158.86 86.7264ZM97.5857 52.2833H123.813C123.813 52.3987 123.813 52.5527 123.813 52.6681C123.813 57.7095 124.848 62.1737 126.842 65.7912H109.319C108.245 65.7912 107.402 66.6378 107.402 67.7154C107.402 68.7929 108.245 69.6395 109.319 69.6395H129.603C129.795 69.8705 129.986 70.1014 130.217 70.3323C131.98 72.4104 134.166 74.9503 135.431 77.8751C135.776 78.6448 136.007 79.4529 136.198 80.2996H109.357C108.284 80.2996 107.44 81.1462 107.44 82.2238C107.44 83.3013 108.284 84.148 109.357 84.148H136.735C136.812 85.4949 136.85 86.8034 136.85 87.9194C136.85 88.3427 136.85 88.7276 136.85 89.1124C136.888 91.5369 137.349 93.692 138.154 95.4623H109.357C108.284 95.4623 107.44 96.3089 107.44 97.3865C107.44 98.464 108.284 99.3107 109.357 99.3107H141.068C143.254 101.119 146.244 102.082 149.964 102.12C150.04 102.12 150.117 102.12 150.194 102.12C153.721 102.12 156.636 101.004 158.86 98.8104C161.697 96.0395 162.732 92.0757 162.732 89.3048C162.732 88.4967 162.732 87.5731 162.732 86.6494C162.694 83.8016 162.656 80.2611 163.231 78.5293C164.036 76.0279 166.72 73.0646 168.867 70.6786C169.903 69.5241 170.9 68.4465 171.59 67.4844C171.628 67.446 171.628 67.4075 171.667 67.369V167.735C171.667 168.736 170.861 169.582 169.864 169.582C161.697 169.775 140.224 169.89 105.945 169.852H103.069C99.9247 169.852 97.5857 170.583 95.8602 171.468V111.433V107.2V59.7107C95.8602 59.5183 95.8219 59.3643 95.7835 59.2104V54.1305C95.7452 53.1299 96.5888 52.2833 97.5857 52.2833ZM17.83 52.2833H89.9936C90.9905 52.2833 91.8341 53.1299 91.8341 54.1305V171.545C90.1086 170.66 87.7313 169.89 84.5487 169.89H81.6729C47.4316 169.929 25.9206 169.813 17.7533 169.621C16.7564 169.621 15.9511 168.774 15.9511 167.774V137.256H59.51C59.5484 137.256 59.5484 137.256 59.5867 137.256C59.6251 137.256 59.7018 137.256 59.7401 137.256C60.1235 137.256 60.507 137.14 60.8137 136.909L76.3431 126.172C76.8416 125.826 77.1483 125.249 77.1867 124.633C77.1867 124.017 76.9183 123.44 76.4198 123.055L60.6604 111.318C60.6604 111.318 60.622 111.318 60.622 111.279C60.5453 111.241 60.507 111.202 60.4303 111.164C60.3919 111.125 60.3153 111.125 60.2769 111.087C60.2386 111.048 60.1619 111.048 60.0852 111.01C60.0085 110.971 59.9702 110.971 59.8935 110.971C59.8551 110.971 59.7784 110.971 59.7401 110.933C59.6634 110.933 59.5867 110.894 59.51 110.894H59.4717H15.9895V54.1305C15.9895 53.1299 16.8331 52.2833 17.83 52.2833ZM3.83441 114.781H18.9803V133.407H3.83441V114.781ZM57.5928 114.781V133.407H22.8147V114.781H57.5928ZM71.9719 124.556L61.4272 131.83V116.667L71.9719 124.556ZM6.25009 57.4401H12.1551V110.933H3.83441V59.7107C3.83441 58.4792 4.94639 57.4401 6.25009 57.4401ZM83.245 189.248H80.2159C40.5681 189.286 15.6444 189.171 6.1734 188.94C4.8697 188.901 3.83441 187.901 3.83441 186.669V137.256H12.1167V167.774C12.1167 170.852 14.6091 173.392 17.6766 173.469C25.8823 173.662 47.3933 173.777 81.6729 173.739H84.5487C88.92 173.739 91.1823 175.509 91.9108 176.24V191.287C89.9936 190.21 87.1178 189.248 83.245 189.248ZM183.822 186.669C183.822 187.901 182.786 188.901 181.483 188.94C172.012 189.171 147.126 189.286 107.517 189.248H104.488C100.615 189.248 97.7774 190.21 95.8219 191.287V176.086C96.7038 175.278 98.9278 173.739 103.031 173.739H105.906C140.186 173.777 161.735 173.662 169.903 173.469C172.97 173.392 175.463 170.852 175.463 167.774V59.4028C175.463 59.3259 175.463 59.2874 175.463 59.2104C175.616 58.6331 175.731 58.0174 175.846 57.4401H181.406C182.748 57.4401 183.822 58.4407 183.822 59.7107V186.669Z" fill="#FFCA43"/>
<path d="M29.9467 69.6396H77.9152C78.9888 69.6396 79.8324 68.7931 79.8324 67.7156C79.8324 66.6381 78.9888 65.7915 77.9152 65.7915H29.9467C28.8731 65.7915 28.0295 66.6381 28.0295 67.7156C28.0295 68.7931 28.9115 69.6396 29.9467 69.6396Z" fill="#FFCA43"/>
<path d="M29.9467 84.1479H77.9152C78.9888 84.1479 79.8324 83.3014 79.8324 82.2239C79.8324 81.1464 78.9888 80.2998 77.9152 80.2998H29.9467C28.8731 80.2998 28.0295 81.1464 28.0295 82.2239C28.0295 83.3014 28.9115 84.1479 29.9467 84.1479Z" fill="#FFCA43"/>
<path d="M29.9467 99.3105H77.9152C78.9888 99.3105 79.8324 98.464 79.8324 97.3865C79.8324 96.309 78.9888 95.4624 77.9152 95.4624H29.9467C28.8731 95.4624 28.0295 96.309 28.0295 97.3865C28.0295 98.464 28.9115 99.3105 29.9467 99.3105Z" fill="#FFCA43"/>
<path d="M77.9152 150.571H29.9467C28.8731 150.571 28.0295 151.418 28.0295 152.496C28.0295 153.573 28.8731 154.42 29.9467 154.42H77.9152C78.9888 154.42 79.8324 153.573 79.8324 152.496C79.8324 151.418 78.9888 150.571 77.9152 150.571Z" fill="#FFCA43"/>
<path d="M109.319 113.665H157.288C158.361 113.665 159.205 112.818 159.205 111.741C159.205 110.663 158.361 109.817 157.288 109.817H109.319C108.245 109.817 107.402 110.663 107.402 111.741C107.402 112.818 108.284 113.665 109.319 113.665Z" fill="#FFCA43"/>
<path d="M106.213 36.7744H117.256C118.33 36.7744 119.173 35.9277 119.173 34.8501C119.173 33.7725 118.33 32.9258 117.256 32.9258H106.213C105.139 32.9258 104.296 33.7725 104.296 34.8501C104.296 35.9277 105.178 36.7744 106.213 36.7744Z" fill="#FFCA43"/>
<path d="M128.875 19.6107C129.258 19.9956 129.757 20.188 130.217 20.188C130.677 20.188 131.214 19.9956 131.559 19.6107C132.326 18.8411 132.326 17.6481 131.559 16.8785L123.737 9.02793C122.97 8.25827 121.781 8.25827 121.014 9.02793C120.247 9.79759 120.247 10.9906 121.014 11.7602L128.875 19.6107Z" fill="#FFCA43"/>
<path d="M169.098 20.4575C169.596 20.4575 170.095 20.2651 170.44 19.8803L178.262 12.0298C179.029 11.2601 179.029 10.0671 178.262 9.29746C177.495 8.5278 176.306 8.5278 175.539 9.29746L167.717 17.148C166.95 17.9176 166.95 19.1106 167.717 19.8803C168.139 20.2651 168.638 20.4575 169.098 20.4575Z" fill="#FFCA43"/>
<path d="M149.58 15.5312C150.654 15.5312 151.497 14.6846 151.497 13.6071V2.48523C151.497 1.40768 150.654 0.561035 149.58 0.561035C148.507 0.561035 147.663 1.40768 147.663 2.48523V13.6071C147.663 14.6846 148.545 15.5312 149.58 15.5312Z" fill="#FFCA43"/>
<path d="M193.216 32.9258H182.134C181.061 32.9258 180.217 33.7725 180.217 34.8501C180.217 35.9277 181.061 36.7744 182.134 36.7744H193.216C194.289 36.7744 195.133 35.9277 195.133 34.8501C195.133 33.7725 194.289 32.9258 193.216 32.9258Z" fill="#FFCA43"/>
<path d="M109.319 154.612H157.364C158.438 154.612 159.281 153.766 159.281 152.688V125.865C159.281 124.787 158.438 123.94 157.364 123.94H109.319C108.245 123.94 107.402 124.787 107.402 125.865V152.688C107.402 153.766 108.284 154.612 109.319 154.612ZM111.236 127.789H155.447V150.764H111.236V127.789Z" fill="#FFCA43"/>
</svg>
