<svg width="197" height="190" viewBox="0 0 197 190" fill="none" xmlns="http://www.w3.org/2000/svg">
<path d="M192.712 107.696L101.372 67.4628C99.4047 66.5547 97.2019 66.5547 95.235 67.4628L4.20977 107.419C4.20977 107.419 4.17043 107.419 4.17043 107.459C1.65288 108.643 0.0400756 111.17 0.000738798 113.973C-0.038598 116.777 1.49554 119.304 3.97375 120.606C4.01309 120.606 4.01309 120.646 4.05243 120.646L42.6418 137.9V174.382C42.6418 184.568 70.7282 189.898 98.4607 189.898C113.015 189.898 126.704 188.477 137.011 185.871C148.458 182.989 154.28 179.12 154.28 174.382C154.28 174.026 154.24 173.711 154.201 173.355V138.926L174.656 129.411V145.244H167.733C166.631 145.244 165.766 146.112 165.766 147.218V166.564C165.766 171.736 169.975 175.961 175.128 175.961H178.393C183.546 175.961 187.755 171.736 187.755 166.564V147.218C187.755 146.112 186.89 145.244 185.788 145.244H178.629V127.516L192.987 120.843C193.026 120.843 193.026 120.804 193.066 120.804C195.544 119.501 197.039 116.974 196.999 114.131C196.881 111.367 195.268 108.88 192.712 107.696ZM183.821 166.485C183.821 169.486 181.383 171.934 178.393 171.934H175.128C172.138 171.934 169.7 169.486 169.7 166.485V149.113H183.821V166.485ZM150.307 168.144C141.574 162.024 119.939 158.826 98.5 158.826C83.9454 158.826 70.2562 160.247 59.95 162.853C53.9314 164.353 49.4864 166.13 46.6148 168.183V117.527C46.6148 117.092 47.0082 113.342 60.894 109.867C70.9249 107.34 84.2601 105.958 98.5 105.958C112.74 105.958 126.075 107.34 136.106 109.867C147.671 112.789 149.874 115.869 150.307 117.053V168.144ZM136.106 181.962C126.075 184.489 112.74 185.871 98.5 185.871C84.2601 185.871 70.9249 184.489 60.894 181.962C47.0082 178.488 46.6148 174.737 46.6148 174.303C46.6148 173.868 47.0082 170.118 60.894 166.643C70.9249 164.116 84.2601 162.734 98.5 162.734C112.74 162.734 126.075 164.116 136.106 166.643C147.671 169.565 149.874 172.645 150.307 173.829V174.303C150.307 174.421 150.307 174.54 150.346 174.658C150.031 175.803 148.064 178.962 136.106 181.962ZM154.24 134.504V118.119C154.28 117.922 154.319 117.724 154.319 117.527C154.319 117.171 154.28 116.816 154.201 116.5C154.201 116.145 154.083 115.79 153.886 115.474C150.385 106.63 124.266 102.01 98.4607 102.01C83.9061 102.01 70.2169 103.431 59.9106 106.037C50.3518 108.446 44.7266 111.525 43.1138 115.237C42.7991 115.592 42.6418 116.026 42.6418 116.5V133.517L5.70457 117.014C4.5638 116.421 3.89508 115.276 3.89508 114.013C3.89508 112.71 4.60314 111.604 5.78324 111.052L96.8085 71.0952C96.8085 71.0952 96.8478 71.0952 96.8478 71.0557C97.7526 70.6214 98.7754 70.6214 99.7194 71.0557L174.656 104.063V124.989L154.24 134.504ZM191.256 117.29L178.629 123.173V105.8L191.099 111.289C192.279 111.841 193.026 112.947 193.026 114.25C193.066 115.553 192.397 116.698 191.256 117.29Z" fill="#FFCA43"/>
<path d="M60.9334 132.373C59.832 132.373 58.9666 133.241 58.9666 134.347V147.85C58.9666 148.955 59.832 149.824 60.9334 149.824C62.0348 149.824 62.9002 148.955 62.9002 147.85V134.347C62.9002 133.281 62.0348 132.373 60.9334 132.373Z" fill="#FFCA43"/>
<path d="M60.9334 118.08C59.832 118.08 58.9666 118.948 58.9666 120.054V126.529C58.9666 127.634 59.832 128.503 60.9334 128.503C62.0348 128.503 62.9002 127.634 62.9002 126.529V120.054C62.9002 118.988 62.0348 118.08 60.9334 118.08Z" fill="#FFCA43"/>
<path d="M73.3245 53.999C75.6454 53.999 77.1402 52.3803 77.0615 50.3669C77.0615 48.3139 75.6454 46.6952 73.4425 46.6558C71.279 46.6558 69.7449 48.2744 69.7449 50.3669C69.7842 52.3803 71.2397 53.999 73.3245 53.999Z" fill="#FFCA43"/>
<path d="M134.454 72.2798C136.775 72.2798 138.269 70.6609 138.191 68.6471C138.191 66.5939 136.775 64.975 134.572 64.9355C132.408 64.9355 130.874 66.5544 130.874 68.6471C130.953 70.7004 132.369 72.2798 134.454 72.2798Z" fill="#FFCA43"/>
<path d="M145.389 20.6753C147.71 20.6753 149.205 19.0565 149.126 17.0429C149.126 14.9898 147.71 13.371 145.507 13.3315C143.344 13.3315 141.81 14.9503 141.81 17.0429C141.849 19.0565 143.265 20.6753 145.389 20.6753Z" fill="#FFCA43"/>
<path d="M34.3419 25.4136C36.6627 25.4136 38.1575 23.7948 38.0789 21.7812C38.0789 19.7281 36.6627 18.1093 34.4599 18.0698C32.2963 18.0698 30.7622 19.6886 30.7622 21.7812C30.8015 23.8343 32.2177 25.4136 34.3419 25.4136Z" fill="#FFCA43"/>
<path d="M26.1596 57.355C27.3397 57.355 28.2444 56.4074 28.2444 55.2624V42.5491C28.2444 41.3646 27.3003 40.4565 26.1596 40.4565C24.9795 40.4565 24.0747 41.4041 24.0747 42.5491V55.2624C24.0747 56.3679 24.9795 57.355 26.1596 57.355Z" fill="#FFCA43"/>
<path d="M26.1596 81.9136C27.3397 81.9136 28.2444 80.966 28.2444 79.821V67.0682C28.2444 65.8837 27.3003 64.9756 26.1596 64.9756C24.9795 64.9756 24.0747 65.9232 24.0747 67.0682V79.7815C24.0747 80.9265 24.9795 81.9136 26.1596 81.9136Z" fill="#FFCA43"/>
<path d="M32.0602 63.2778H44.7266C45.9067 63.2778 46.8114 62.33 46.8114 61.1848C46.8114 60.0001 45.8674 59.0918 44.7266 59.0918H32.0602C30.8801 59.0918 29.9753 60.0396 29.9753 61.1848C29.936 62.33 30.8801 63.2778 32.0602 63.2778Z" fill="#FFCA43"/>
<path d="M7.59287 63.2778H20.2593C21.4394 63.2778 22.3441 62.33 22.3441 61.1848C22.3441 60.0001 21.4001 59.0918 20.2593 59.0918H7.59287C6.41277 59.0918 5.50802 60.0396 5.50802 61.1848C5.46869 62.33 6.41277 63.2778 7.59287 63.2778Z" fill="#FFCA43"/>
<path d="M169.385 51.3145C170.565 51.3145 171.47 50.3668 171.47 49.2218V36.5082C171.47 35.3236 170.526 34.4155 169.385 34.4155C168.205 34.4155 167.3 35.3631 167.3 36.5082V49.2218C167.3 50.3274 168.205 51.3145 169.385 51.3145Z" fill="#FFCA43"/>
<path d="M169.385 75.8726C170.565 75.8726 171.47 74.925 171.47 73.78V61.0271C171.47 59.8427 170.526 58.9346 169.385 58.9346C168.205 58.9346 167.3 59.8822 167.3 61.0271V73.7405C167.3 74.8855 168.205 75.8726 169.385 75.8726Z" fill="#FFCA43"/>
<path d="M175.285 57.1973H187.952C189.132 57.1973 190.037 56.2497 190.037 55.1047C190.037 53.9598 189.092 53.0122 187.952 53.0122H175.285C174.105 53.0122 173.2 53.9598 173.2 55.1047C173.2 56.2497 174.105 57.1973 175.285 57.1973Z" fill="#FFCA43"/>
<path d="M150.818 57.1973H163.484C164.664 57.1973 165.569 56.2497 165.569 55.1047C165.569 53.9598 164.625 53.0122 163.484 53.0122H150.818C149.638 53.0122 148.733 53.9598 148.733 55.1047C148.733 56.2497 149.638 57.1973 150.818 57.1973Z" fill="#FFCA43"/>
<path d="M97.4378 17.2407C98.6179 17.2407 99.5227 16.2931 99.5227 15.1482V2.43485C99.5227 1.25038 98.5786 0.342285 97.4378 0.342285C96.2971 0.342285 95.353 1.28986 95.353 2.43485V15.1482C95.3137 16.2931 96.2577 17.2407 97.4378 17.2407Z" fill="#FFCA43"/>
<path d="M97.4378 41.7993C98.6179 41.7993 99.5227 40.8517 99.5227 39.7067V26.9535C99.5227 25.769 98.5786 24.8608 97.4378 24.8608C96.2971 24.8608 95.353 25.8084 95.353 26.9535V39.6672C95.3137 40.8517 96.2577 41.7993 97.4378 41.7993Z" fill="#FFCA43"/>
<path d="M103.338 23.1636H116.005C117.185 23.1636 118.09 22.2159 118.09 21.0708C118.09 19.9257 117.145 18.978 116.005 18.978H103.338C102.158 18.978 101.253 19.9257 101.253 21.0708C101.253 22.2159 102.158 23.1636 103.338 23.1636Z" fill="#FFCA43"/>
<path d="M78.8317 23.1636H91.4981C92.6782 23.1636 93.5829 22.2159 93.5829 21.0708C93.5829 19.9257 92.6389 18.978 91.4981 18.978H78.8317C77.6516 18.978 76.7468 19.9257 76.7468 21.0708C76.7468 22.2159 77.6516 23.1636 78.8317 23.1636Z" fill="#FFCA43"/>
</svg>
