<svg width="197" height="157" viewBox="0 0 197 157" fill="none" xmlns="http://www.w3.org/2000/svg">
<path d="M98.4615 45.1973C99.5392 45.1973 100.386 44.3463 100.386 43.2632V39.2402C100.386 38.1572 99.5392 37.3062 98.4615 37.3062C97.3837 37.3062 96.5369 38.1572 96.5369 39.2402V43.2632C96.5369 44.3463 97.3837 45.1973 98.4615 45.1973Z" fill="#FFCA43"/>
<path d="M14.7808 84.0371C15.8586 84.0371 16.7054 83.1861 16.7054 82.1029V78.0797C16.7054 76.9966 15.8586 76.1455 14.7808 76.1455C13.703 76.1455 12.8562 76.9966 12.8562 78.0797V82.1029C12.8562 83.1861 13.703 84.0371 14.7808 84.0371Z" fill="#FFCA43"/>
<path d="M190.533 5.89523H184.144C183.874 2.87789 181.372 0.479492 178.293 0.479492H102.388C100.886 0.479492 99.5008 1.05975 98.4615 1.98816C97.4222 1.05975 96.0365 0.479492 94.5354 0.479492H18.7069C15.6276 0.479492 13.0871 2.87789 12.8562 5.89523H6.46659C2.88687 5.89523 0 8.75783 0 12.2781V145.853C0 149.296 2.84838 152.159 6.35111 152.198C16.3204 152.43 42.5332 152.546 84.2196 152.507H87.4144C94.1889 152.507 96.8834 155.834 96.9988 155.989C97.3068 156.414 97.8071 156.685 98.3075 156.724H98.346C98.423 156.724 98.5385 156.762 98.6155 156.762C99.1929 156.762 99.7702 156.491 100.155 155.989C100.271 155.834 102.965 152.507 109.74 152.507H112.973C121.787 152.507 145.19 152.546 165.398 152.43C166.476 152.43 167.323 151.54 167.323 150.495C167.323 149.412 166.476 148.561 165.398 148.561C145.229 148.677 121.826 148.639 113.011 148.639H109.778C105.621 148.639 102.619 149.683 100.579 150.844V143.029H182.258C183.335 143.029 184.182 142.178 184.182 141.095V126.666C184.221 126.434 184.221 126.241 184.221 126.009V9.76361H190.533C191.958 9.76361 193.151 10.8854 193.151 12.2781V145.892C193.151 147.246 192.035 148.329 190.61 148.368C188.57 148.406 185.953 148.445 182.835 148.484C181.757 148.484 180.911 149.374 180.949 150.457C180.949 151.501 181.834 152.352 182.874 152.352C182.874 152.352 182.874 152.352 182.912 152.352C186.03 152.314 188.647 152.275 190.726 152.236C194.267 152.12 197 149.335 197 145.892V12.2781C197 8.75783 194.113 5.89523 190.533 5.89523ZM96.6909 150.882C94.6508 149.722 91.61 148.639 87.4144 148.639H84.2196C42.5717 148.677 16.3974 148.561 6.4281 148.329C5.00391 148.29 3.84916 147.207 3.84916 145.853V12.2781C3.84916 10.8854 5.0424 9.76361 6.46659 9.76361H12.8177V71.6191C12.8177 72.7022 13.6645 73.5533 14.7423 73.5533C15.82 73.5533 16.6669 72.7022 16.6669 71.6191V6.39812C16.6669 5.27629 17.5907 4.34788 18.7069 4.34788H94.5354C95.4977 4.34788 96.306 5.04419 96.5369 5.93392C96.5369 6.08865 96.4984 6.24339 96.4984 6.39812C96.4984 6.59154 96.5369 6.74628 96.5754 6.90101V32.5097C96.5754 33.5929 97.4222 34.4439 98.5 34.4439C99.5778 34.4439 100.425 33.5929 100.425 32.5097V6.39812C100.425 6.24339 100.425 6.08865 100.386 5.93392C100.579 5.0055 101.387 4.34788 102.388 4.34788H178.293C179.409 4.34788 180.333 5.27629 180.333 6.39812V124.19C180.295 124.306 180.295 124.423 180.295 124.577V126.395C180.102 127.324 179.332 128.02 178.37 128.02C169.825 128.214 147.23 128.33 111.241 128.291H108.2C104.736 128.291 102.195 129.142 100.386 130.109V50.2269C100.386 49.1438 99.5393 48.2927 98.4615 48.2927C97.3837 48.2927 96.5369 49.1438 96.5369 50.2269V130.07C94.7278 129.103 92.1874 128.291 88.8001 128.291H85.7593C49.7696 128.33 27.1751 128.214 18.6299 128.02C17.5522 127.981 16.6669 127.092 16.6669 126.009V125.97V88.7173C16.6669 87.6342 15.82 86.7831 14.7423 86.7831C13.6645 86.7831 12.8177 87.6342 12.8177 88.7173V125.97V126.009V141.095C12.8177 142.178 13.6645 143.029 14.7423 143.029H96.6909V150.882ZM16.6669 131.54C17.2442 131.772 17.8986 131.889 18.5529 131.889C27.1366 132.082 49.7696 132.198 85.7978 132.159H88.8386C93.6886 132.159 96.0365 134.21 96.7294 134.906V139.161H16.6669V131.54ZM100.54 139.161V134.674C101.464 133.823 103.812 132.159 108.2 132.159H111.241C147.269 132.198 169.863 132.082 178.447 131.889C179.101 131.889 179.717 131.734 180.295 131.54V139.161H100.54Z" fill="#FFCA43"/>
<path d="M176.484 148.484C176.484 148.484 176.446 148.484 176.484 148.484L172.173 148.561C171.095 148.561 170.248 149.451 170.287 150.534C170.287 151.579 171.172 152.43 172.211 152.43H172.25L176.523 152.353C177.6 152.353 178.447 151.463 178.409 150.38C178.409 149.335 177.523 148.484 176.484 148.484Z" fill="#FFCA43"/>
<path d="M38.4146 62.1802C38.4146 63.2635 39.2614 64.1147 40.3391 64.1147H80.6013C81.6791 64.1147 82.5259 63.2635 82.5259 62.1802C82.5259 61.0968 81.6791 60.2456 80.6013 60.2456H40.3391C39.2614 60.2456 38.4146 61.0968 38.4146 62.1802Z" fill="#FFCA43"/>
<path d="M30.2158 64.1147H34.2959C35.3737 64.1147 36.2205 63.2635 36.2205 62.1802C36.2205 61.0968 35.3737 60.2456 34.2959 60.2456H30.2158C29.1381 60.2456 28.2913 61.0968 28.2913 62.1802C28.2913 63.2635 29.1381 64.1147 30.2158 64.1147Z" fill="#FFCA43"/>
<path d="M80.6013 75.5259H40.3391C39.2614 75.5259 38.4146 76.377 38.4146 77.4602C38.4146 78.5434 39.2614 79.3945 40.3391 79.3945H80.6013C81.6791 79.3945 82.5259 78.5434 82.5259 77.4602C82.5259 76.377 81.6791 75.5259 80.6013 75.5259Z" fill="#FFCA43"/>
<path d="M30.2158 79.3945H34.2959C35.3737 79.3945 36.2205 78.5434 36.2205 77.4602C36.2205 76.377 35.3737 75.5259 34.2959 75.5259H30.2158C29.1381 75.5259 28.2913 76.377 28.2913 77.4602C28.2913 78.5434 29.1381 79.3945 30.2158 79.3945Z" fill="#FFCA43"/>
<path d="M80.6013 91.4639H40.3391C39.2614 91.4639 38.4146 92.3149 38.4146 93.3979C38.4146 94.481 39.2614 95.332 40.3391 95.332H80.6013C81.6791 95.332 82.5259 94.481 82.5259 93.3979C82.5259 92.3149 81.6791 91.4639 80.6013 91.4639Z" fill="#FFCA43"/>
<path d="M30.2158 95.332H34.2959C35.3737 95.332 36.2205 94.481 36.2205 93.3979C36.2205 92.3149 35.3737 91.4639 34.2959 91.4639H30.2158C29.1381 91.4639 28.2913 92.3149 28.2913 93.3979C28.2913 94.481 29.1381 95.332 30.2158 95.332Z" fill="#FFCA43"/>
<path d="M80.6013 106.551H40.3391C39.2614 106.551 38.4146 107.402 38.4146 108.485C38.4146 109.568 39.2614 110.419 40.3391 110.419H80.6013C81.6791 110.419 82.5259 109.568 82.5259 108.485C82.5259 107.402 81.6791 106.551 80.6013 106.551Z" fill="#FFCA43"/>
<path d="M30.2158 110.419H34.2959C35.3737 110.419 36.2205 109.568 36.2205 108.485C36.2205 107.402 35.3737 106.551 34.2959 106.551H30.2158C29.1381 106.551 28.2913 107.402 28.2913 108.485C28.2913 109.568 29.1381 110.419 30.2158 110.419Z" fill="#FFCA43"/>
<path d="M123.25 62.1802C123.25 63.2635 124.097 64.1147 125.175 64.1147H165.437C166.515 64.1147 167.361 63.2635 167.361 62.1802C167.361 61.0968 166.515 60.2456 165.437 60.2456H125.175C124.097 60.2456 123.25 61.0968 123.25 62.1802Z" fill="#FFCA43"/>
<path d="M115.052 64.1147H119.132C120.209 64.1147 121.056 63.2635 121.056 62.1802C121.056 61.0968 120.209 60.2456 119.132 60.2456H115.052C113.974 60.2456 113.127 61.0968 113.127 62.1802C113.127 63.2635 113.974 64.1147 115.052 64.1147Z" fill="#FFCA43"/>
<path d="M165.437 75.5259H125.175C124.097 75.5259 123.25 76.377 123.25 77.4602C123.25 78.5434 124.097 79.3945 125.175 79.3945H165.437C166.515 79.3945 167.361 78.5434 167.361 77.4602C167.361 76.377 166.515 75.5259 165.437 75.5259Z" fill="#FFCA43"/>
<path d="M115.052 79.3945H119.132C120.209 79.3945 121.056 78.5434 121.056 77.4602C121.056 76.377 120.209 75.5259 119.132 75.5259H115.052C113.974 75.5259 113.127 76.377 113.127 77.4602C113.127 78.5434 113.974 79.3945 115.052 79.3945Z" fill="#FFCA43"/>
<path d="M165.437 91.4639H125.175C124.097 91.4639 123.25 92.3149 123.25 93.3979C123.25 94.481 124.097 95.332 125.175 95.332H165.437C166.515 95.332 167.361 94.481 167.361 93.3979C167.361 92.3149 166.515 91.4639 165.437 91.4639Z" fill="#FFCA43"/>
<path d="M115.052 95.332H119.132C120.209 95.332 121.056 94.481 121.056 93.3979C121.056 92.3149 120.209 91.4639 119.132 91.4639H115.052C113.974 91.4639 113.127 92.3149 113.127 93.3979C113.127 94.481 113.974 95.332 115.052 95.332Z" fill="#FFCA43"/>
<path d="M165.437 106.551H125.175C124.097 106.551 123.25 107.402 123.25 108.485C123.25 109.568 124.097 110.419 125.175 110.419H165.437C166.515 110.419 167.361 109.568 167.361 108.485C167.361 107.402 166.515 106.551 165.437 106.551Z" fill="#FFCA43"/>
<path d="M115.052 110.419H119.132C120.209 110.419 121.056 109.568 121.056 108.485C121.056 107.402 120.209 106.551 119.132 106.551H115.052C113.974 106.551 113.127 107.402 113.127 108.485C113.127 109.568 113.974 110.419 115.052 110.419Z" fill="#FFCA43"/>
<path d="M50.2701 51.9291C50.655 52.2773 51.1169 52.4707 51.5788 52.4707C52.0792 52.4707 52.5796 52.2773 52.9645 51.8904L79.5622 24.657C79.9086 24.3088 80.1011 23.806 80.1011 23.2644C80.1011 22.7615 79.8701 22.2586 79.5237 21.9104L70.8246 13.3613C70.0548 12.6263 68.8615 12.6263 68.1302 13.3613L50.2701 31.3106L42.3408 23.3417C41.9559 22.9549 41.494 22.7615 40.9551 22.7615C40.4162 22.7615 39.9543 22.9936 39.5694 23.3804L31.8326 31.6201C31.1013 32.3938 31.1398 33.593 31.8711 34.328C36.4516 38.8927 50.1161 51.8131 50.2701 51.9291ZM41.0321 27.4809L48.9229 35.4111C49.2693 35.7593 49.7697 35.9914 50.2701 35.9914C50.7705 35.9914 51.2709 35.798 51.6173 35.4111L69.4774 17.4618L75.4436 23.3031L51.5018 47.79C48.2685 44.7339 40.1853 37.0745 35.9127 32.858L41.0321 27.4809Z" fill="#FFCA43"/>
<path d="M128.908 52.1609C129.64 52.8958 130.833 52.9345 131.564 52.1995L140.456 43.9212L148.501 52.1995C148.847 52.5864 149.347 52.7798 149.886 52.7798C150.425 52.7798 150.887 52.5477 151.272 52.1995L159.201 43.9212C159.894 43.1862 159.933 42.0257 159.24 41.252L151.657 32.9737L160.01 24.5794C160.779 23.8057 160.779 22.6065 160.01 21.8328L151.734 13.5158C150.964 12.7421 149.771 12.7421 149.001 13.5158L140.61 21.9489L132.296 13.6319C131.949 13.2837 131.449 13.0903 130.91 13.0516C130.41 13.0516 129.909 13.2837 129.563 13.6319L121.441 22.0262C120.71 22.7612 120.71 23.9217 121.402 24.6954L129.024 32.9737L120.787 41.252C120.017 42.0257 120.017 43.2249 120.787 43.9986L128.908 52.1609ZM133.065 34.4437C133.797 33.7087 133.835 32.5095 133.104 31.7745L125.483 23.4962L130.987 17.8097L139.263 26.088C140.032 26.823 141.226 26.823 141.995 26.088L150.387 17.655L155.929 23.2254L147.615 31.5811C146.884 32.3161 146.845 33.5153 147.577 34.2503L155.198 42.5286L149.886 48.0604L141.918 39.8594C141.187 39.1244 139.994 39.0858 139.224 39.7821L130.294 48.0604L124.867 42.606L133.065 34.4437Z" fill="#FFCA43"/>
</svg>
